<svg width="139" height="21" viewBox="0 0 139 21" fill="none" xmlns="http://www.w3.org/2000/svg">
<path d="M81.6922 16.7688C83.2938 10.8607 86.0054 0.862606 86.2363 0H91.8606L87.6443 15.843C87.6182 15.9471 87.6406 16.0586 87.7039 16.1441C87.7709 16.2296 87.8715 16.278 87.9795 16.278H93.6038C93.6038 16.278 92.5087 20.42 92.3635 20.9703H84.9141C83.8749 20.9703 82.8953 20.4869 82.2621 19.6652C81.6326 18.8398 81.4203 17.7689 81.6922 16.7688Z" fill="black"/>
<path d="M118.745 20.9703C116.168 20.9703 114.194 19.245 114.086 16.3635C113.951 12.7123 114.108 7.58499 114.048 5.64784C114.041 5.43962 113.989 5.32064 113.91 5.25372C113.851 5.20538 113.78 5.18307 113.691 5.18307C113.62 5.18307 113.557 5.19423 113.497 5.23141C113.419 5.27975 113.344 5.38014 113.285 5.59207C112.856 7.16484 111.18 13.3035 110.555 15.6013C109.858 18.1593 107.768 20.9703 104.282 20.9703H94.6836L98.5238 6.89713H104.1C103.824 7.92334 101.541 16.3486 101.541 16.3486C101.533 16.3709 101.541 16.397 101.556 16.4193C101.571 16.4379 101.593 16.449 101.619 16.449H103.846C104.185 16.449 104.442 16.3709 104.647 16.2259C104.945 16.0103 105.131 15.6422 105.28 15.1291L109.407 0H114.927C116.03 0 116.965 0.275142 117.639 0.851452C118.309 1.42776 118.715 2.30524 118.767 3.50992C118.887 6.22787 118.89 13.5228 118.976 15.7909C118.987 16.0772 119.118 16.2482 119.341 16.2519C119.557 16.2557 119.665 16.1218 119.747 15.8281C120.31 13.7348 122.403 5.95273 123.084 3.46902C123.591 1.60995 125.148 0 127.692 0H138.363C138.196 0.639518 137.272 4.11969 137.141 4.62164H129.368C128.921 4.62164 128.56 4.72946 128.28 4.94511C127.997 5.16077 127.8 5.48052 127.673 5.91183L123.569 20.9703H118.745Z" fill="black"/>
<path d="M126.891 20.9684C126.891 20.9684 130.403 8.19662 130.675 7.21875H136.355C136.355 7.21875 132.891 19.9868 132.627 20.9684H126.891Z" fill="black"/>
<path d="M33.1254 0C36.3026 0 38.0011 2.88899 37.1034 6.14979L34.4887 15.6013C33.5314 19.0814 31.5871 20.9703 28.3616 20.9703H24.0968C20.9196 20.9703 19.3627 17.9772 20.2045 14.8205C20.7669 12.716 22.0929 7.90846 22.2568 7.321C22.808 7.32472 26.8977 7.33959 27.6054 7.34331C27.6054 7.34331 25.6574 14.6643 25.6388 14.735C25.4451 15.4265 25.5122 15.9508 25.7841 16.2557C25.9703 16.4676 26.2496 16.5829 26.6184 16.5829H27.5011C28.3578 16.5829 28.9501 15.8281 29.2257 14.7907C29.2369 14.7424 31.4419 6.63686 31.4605 6.57366C31.6989 5.72592 31.6356 5.16077 31.3264 4.84472C31.1178 4.62907 30.7975 4.52125 30.3692 4.52125H23.0427C24.0223 0.985304 26.5588 0 28.9277 0H33.1254Z" fill="black"/>
<path d="M35.2441 20.9703L36.4994 16.4341H43.2113C43.5726 16.4341 43.8184 16.2966 43.9637 16.0884C44.176 15.7835 44.1685 15.315 43.9599 14.88L40.5183 7.95308C39.4568 5.79657 39.5052 3.36491 40.7455 1.75868C41.5724 0.69529 42.9282 0 44.8278 0H52.862C52.6943 0.632082 51.8079 4.01186 51.6775 4.50637H46.2692C45.8521 4.50637 45.5429 4.67369 45.3977 4.95627C45.2524 5.23141 45.2636 5.62553 45.4908 6.0903C46.124 7.37305 48.802 12.7866 48.8132 12.8127C50.4074 16.0549 48.8207 20.974 44.2095 20.974L35.2441 20.9703Z" fill="black"/>
<path d="M73.9476 16.4639C73.9401 16.5011 73.9066 16.5234 73.8693 16.5234H71.3663C70.9194 16.5234 70.6065 16.3523 70.4314 16.0772C70.2601 15.8095 70.2229 15.434 70.3495 15.0101C70.3607 14.9655 70.7927 13.3518 70.9454 12.7643C71.0423 12.3851 71.195 12.1062 71.411 11.9166C71.6345 11.727 71.925 11.634 72.3124 11.634H75.1432C75.1693 11.634 75.1916 11.6452 75.2065 11.6675C75.2214 11.6861 75.2288 11.7121 75.2214 11.7381L73.9476 16.4639ZM78.3948 0H59.2089C57.0859 0 55.6369 0.699008 54.7765 1.77355C53.4841 3.3835 53.5288 5.83003 54.6052 7.98283L58.1623 14.8502C58.4118 15.3522 58.4267 15.75 58.2778 16.0251C58.125 16.304 57.801 16.4639 57.354 16.4639H51.5025L50.3926 20.9703H58.4118C63.0193 20.9703 64.4906 16.0772 62.9262 12.8387C62.8927 12.7755 59.574 6.11632 59.574 6.11632C59.574 6.11632 59.574 6.11632 59.574 6.11261C59.3542 5.64412 59.3318 5.25372 59.4697 4.97858C59.6112 4.696 59.9203 4.52868 60.3822 4.52868H75.7764C76.1563 4.52868 76.4654 4.68856 76.6554 4.9414C76.8454 5.19423 76.9199 5.54001 76.823 5.91926C76.823 5.91926 76.823 5.91926 76.823 5.92298L76.3798 7.47716C76.3723 7.51434 76.3388 7.53665 76.3016 7.53665H70.9529C68.6995 7.53665 67.1239 8.74132 66.5727 10.7082L65.4441 14.7573C65.4441 14.7573 65.4441 14.7573 65.4441 14.761C64.9375 16.4788 65.0865 18.0404 65.8203 19.1744C66.554 20.301 67.8689 21 69.6902 21H78.1416L82.343 5.4136C83.155 2.47999 81.166 0 78.3948 0Z" fill="black"/>
<path d="M14.506 6.05462L14.2825 6.87261C14.1372 7.38571 13.8951 7.72406 13.5934 7.94343C13.1427 8.27063 12.543 8.33755 11.8577 8.33755H9.3249C9.29883 8.33755 9.27648 8.3264 9.26158 8.30409C9.24668 8.2855 9.23923 8.25947 9.24668 8.23345L10.3231 4.348C10.3343 4.31082 10.3641 4.28851 10.4013 4.28851H13.1092C13.653 4.28851 14.0813 4.42236 14.3346 4.70866C14.5953 4.99124 14.6773 5.42998 14.506 6.05462ZM12.6026 14.1155L12.327 15.1715C12.1929 15.6734 11.9992 16.0155 11.7311 16.2497C11.3288 16.5955 10.7477 16.7033 9.89105 16.7033H7.09381C7.06773 16.7033 7.04539 16.6922 7.03049 16.6736C7.01559 16.6513 7.01186 16.629 7.01559 16.603L8.17024 12.3122C8.17769 12.2788 8.21122 12.2527 8.24846 12.2527H11.2655C11.8093 12.2527 12.2302 12.4275 12.4685 12.7473C12.7069 13.0633 12.774 13.5281 12.6026 14.1155ZM19.8993 1.47017C19.2065 0.566661 18.0519 0.03125 16.6253 0.03125H5.98385L0.363281 21.0015H11.746C14.9976 21.0015 17.0872 18.7372 17.8135 16.0452L18.253 14.2828C18.7223 12.4684 17.7651 10.8547 16.1672 10.3305C16.0666 10.297 16.0368 10.2226 16.0443 10.1669C16.0517 10.1074 16.1001 10.0479 16.197 10.0367C18.1711 9.81737 19.4375 8.71309 19.985 6.65324L20.3984 5.09906C20.8156 3.64155 20.5884 2.37367 19.8993 1.47017Z" fill="black"/>
<path d="M98.9414 4.62164L100.2 0H105.813L104.569 4.62164H98.9414Z" fill="black"/>
</svg>
