<svg width="32" height="21" viewBox="0 0 32 21" fill="none" xmlns="http://www.w3.org/2000/svg">
<rect x="0.513281" y="0.321875" width="30.4251" height="19.6298" rx="2.85" fill="white" stroke="black" stroke-width="0.3"/>
<path fill-rule="evenodd" clip-rule="evenodd" d="M14.0605 14.7334L14.2546 13.53L13.8223 13.5202H11.7578L13.1925 4.64008C13.197 4.61319 13.2114 4.58823 13.2325 4.57047C13.2538 4.55271 13.2808 4.54297 13.3091 4.54297H16.79C17.9457 4.54297 18.7432 4.77767 19.1595 5.24099C19.3548 5.45834 19.4791 5.68554 19.5393 5.93546C19.6024 6.19777 19.6034 6.51111 19.5419 6.89336L19.5374 6.92116V7.16611L19.7326 7.27408C19.897 7.35921 20.0276 7.45663 20.1278 7.56814C20.2948 7.75404 20.4028 7.99026 20.4484 8.27022C20.4956 8.5582 20.48 8.90097 20.4028 9.289C20.3137 9.73527 20.1697 10.124 19.9752 10.442C19.7964 10.7351 19.5686 10.9782 19.298 11.1665C19.0397 11.3455 18.7328 11.4814 18.3858 11.5684C18.0496 11.6538 17.6662 11.6969 17.2457 11.6969H16.9748C16.7812 11.6969 16.593 11.765 16.4453 11.8871C16.2972 12.0117 16.1993 12.182 16.1692 12.3682L16.1487 12.4765L15.8058 14.5976L15.7903 14.6754C15.7862 14.7001 15.7791 14.7124 15.7687 14.7207C15.7595 14.7283 15.7461 14.7334 15.7332 14.7334H14.0605Z" fill="#28356A"/>
<path fill-rule="evenodd" clip-rule="evenodd" d="M19.9169 6.94922C19.9066 7.01406 19.8946 7.08032 19.8813 7.14841C19.4223 9.44917 17.8517 10.244 15.8459 10.244H14.8246C14.5793 10.244 14.3725 10.4178 14.3344 10.654L13.6634 14.8088C13.6385 14.964 13.761 15.1037 13.9213 15.1037H15.7327C15.9471 15.1037 16.1294 14.9516 16.1631 14.7451L16.1809 14.6553L16.522 12.5425L16.5439 12.4267C16.5773 12.2194 16.7599 12.0672 16.9744 12.0672H17.2453C19.0002 12.0672 20.3741 11.3718 20.7757 9.35897C20.9434 8.51817 20.8566 7.81609 20.4127 7.32233C20.2784 7.17347 20.1118 7.04988 19.9169 6.94922Z" fill="#298FC2"/>
<path fill-rule="evenodd" clip-rule="evenodd" d="M19.4364 6.76239C19.3662 6.74241 19.2938 6.72434 19.2196 6.70801C19.145 6.69208 19.0686 6.67797 18.9899 6.66559C18.7145 6.62216 18.4128 6.60156 18.0896 6.60156H15.3612C15.294 6.60156 15.2301 6.61638 15.1731 6.64317C15.0472 6.70222 14.9537 6.81851 14.9311 6.96087L14.3506 10.5495L14.334 10.6541C14.3721 10.4179 14.5789 10.2441 14.8242 10.2441H15.8455C17.8513 10.2441 19.4219 9.44885 19.8809 7.14849C19.8947 7.08041 19.9062 7.01415 19.9165 6.94931C19.8004 6.88913 19.6746 6.83769 19.5392 6.79385C19.5057 6.78299 19.4712 6.77254 19.4364 6.76239Z" fill="#22284F"/>
<path fill-rule="evenodd" clip-rule="evenodd" d="M14.9311 6.96092C14.9538 6.81856 15.0472 6.70227 15.1731 6.64362C15.2306 6.61673 15.294 6.60192 15.3613 6.60192H18.0896C18.4128 6.60192 18.7146 6.62262 18.9899 6.66605C19.0686 6.67832 19.145 6.69253 19.2197 6.70846C19.2939 6.7247 19.3662 6.74286 19.4364 6.76275C19.4712 6.7729 19.5057 6.78345 19.5395 6.7939C19.675 6.83774 19.8008 6.88959 19.917 6.94935C20.0535 6.09912 19.9158 5.52023 19.4449 4.99603C18.9257 4.41886 17.9887 4.17188 16.7896 4.17188H13.3086C13.0637 4.17188 12.8547 4.3457 12.8169 4.58233L11.367 13.5537C11.3384 13.7312 11.4786 13.8913 11.662 13.8913H13.8111L14.9311 6.96092Z" fill="#28356A"/>
</svg>
