<svg width="31" height="20" viewBox="0 0 31 20" fill="none" xmlns="http://www.w3.org/2000/svg">
<rect x="0.544531" y="0.15" width="29.5947" height="19.6298" rx="2.85" fill="white" stroke="black" stroke-width="0.3"/>
<path fill-rule="evenodd" clip-rule="evenodd" d="M19.4519 15.7589C22.6132 15.7589 25.1758 13.2315 25.1758 10.1138C25.1758 6.99613 22.6132 4.46875 19.4519 4.46875C18.0352 4.46875 16.7387 4.97636 15.7392 5.81723C14.7397 4.97643 13.4433 4.46887 12.0266 4.46887C8.86541 4.46887 6.30273 6.99625 6.30273 10.1139C6.30273 13.2316 8.86541 15.759 12.0266 15.759C13.4433 15.759 14.7399 15.2514 15.7394 14.4105C16.7388 15.2513 18.0353 15.7589 19.4519 15.7589Z" fill="#ED0006"/>
<path fill-rule="evenodd" clip-rule="evenodd" d="M15.7383 14.4104C16.9691 13.375 17.7495 11.8343 17.7495 10.1138C17.7495 8.39332 16.9691 6.8526 15.7383 5.81719C16.7378 4.97635 18.0343 4.46875 19.451 4.46875C22.6122 4.46875 25.1749 6.99613 25.1749 10.1138C25.1749 13.2315 22.6122 15.7589 19.451 15.7589C18.0343 15.7589 16.7378 15.2513 15.7383 14.4104Z" fill="#F9A000"/>
<path fill-rule="evenodd" clip-rule="evenodd" d="M15.7395 14.4054C16.9702 13.37 17.7505 11.8293 17.7505 10.109C17.7505 8.38856 16.9702 6.84791 15.7395 5.8125C14.5089 6.84791 13.7285 8.38856 13.7285 10.109C13.7285 11.8293 14.5089 13.37 15.7395 14.4054Z" fill="#FF5E00"/>
</svg>
