<svg width="32" height="20" viewBox="0 0 32 20" fill="none" xmlns="http://www.w3.org/2000/svg">
<rect x="0.363281" width="30.7251" height="19.9298" rx="3" fill="#FFCC00"/>
<path d="M28.1291 8.76658C28.1291 8.76658 28.4054 7.48498 28.4092 7.47295H26.6538C26.6538 7.48106 26.2908 9.17372 26.2908 9.18176C26.2947 9.18176 26.7406 9.18176 26.7406 9.18176C26.7445 9.18176 27.0167 7.90413 27.0167 7.90413H27.8687C27.8687 7.90413 27.6005 9.18568 27.5926 9.19379C27.6005 9.19379 28.8904 9.19379 28.8904 9.19379L28.7209 9.98418C28.7209 9.98418 27.4349 9.98418 27.4307 9.98418C27.4307 9.99221 27.1705 11.1899 27.1705 11.1899C27.1705 11.1899 26.204 11.1899 26.1962 11.1899C26.1962 11.1938 26.1093 11.621 26.1055 11.625H27.5412C27.5412 11.621 27.7978 10.4153 27.7978 10.4153C27.7978 10.4153 29.0798 10.4153 29.0878 10.4153C29.0878 10.4113 29.4271 8.77447 29.4271 8.76658H28.1291Z" fill="#ED1C24"/>
<path d="M25.0051 11.625L25.2765 10.7946L3.12712 10.7946L2.85547 11.625L25.0051 11.625Z" fill="white"/>
<path fill-rule="evenodd" clip-rule="evenodd" d="M7.25987 11.1484C7.91221 11.1484 8.35258 10.6724 8.45228 10.0503C8.55621 9.42816 8.21141 8.9521 7.55899 8.9521C6.90678 8.9521 6.46636 9.42816 6.36663 10.0503C6.2628 10.6724 6.60765 11.1484 7.25987 11.1484ZM24.8338 10.5639L24.7256 11.0608C24.5677 11.1107 24.3767 11.1484 24.1357 11.1484C23.5416 11.1484 23.1594 10.8101 23.1594 10.2341C23.1594 9.56192 23.608 8.9521 24.3476 8.9521C24.9168 8.9521 25.1827 9.32797 25.1827 9.78732C25.1827 9.93758 25.1536 10.1003 25.1038 10.2632H23.7328C23.7452 10.5847 23.9778 10.6765 24.2439 10.6765C24.4722 10.6765 24.651 10.6264 24.8338 10.5639ZM24.6347 9.75426C24.6347 9.53296 24.5017 9.39943 24.3064 9.39943C24.057 9.39943 23.8702 9.5831 23.783 9.86273H24.6265L24.6279 9.84936C24.6314 9.81708 24.6347 9.78725 24.6347 9.75426ZM22.4702 10.6402C22.2002 10.6402 22.0174 10.5234 22.0174 10.1852C22.0174 9.78856 22.2666 9.45864 22.6614 9.45864C22.786 9.45864 22.9273 9.49621 23.0686 9.55058L23.1683 9.0746C23.0062 9.0162 22.815 8.97438 22.6239 8.97438C21.9716 8.97438 21.4148 9.46282 21.4148 10.2145C21.4148 10.8323 21.793 11.1245 22.3372 11.1245C22.52 11.1245 22.6737 11.0912 22.786 11.0453L22.894 10.5567C22.7694 10.6026 22.6322 10.6402 22.4702 10.6402ZM19.8274 10.0287L19.5989 11.0851H19.0048L19.4493 9.01431H20.0018L19.9479 9.26052C20.1474 9.04756 20.3799 8.95146 20.621 8.95146C21.0572 8.95146 21.3355 9.26893 21.2067 9.87429L20.9451 11.0851H20.3509L20.6002 9.90353C20.6543 9.66565 20.621 9.45676 20.3426 9.45676C20.1266 9.45676 19.9188 9.60292 19.8274 10.0287ZM17.4635 10.4898C17.4635 10.2811 17.6463 10.164 17.9495 10.164C18.0078 10.164 18.1364 10.1683 18.2529 10.185L18.2279 10.3019C18.1571 10.5481 17.9579 10.7153 17.7212 10.7153C17.5507 10.7153 17.4635 10.6318 17.4635 10.4898ZM17.3932 9.05547C17.4845 9.02625 17.7629 8.96353 18.0372 8.96353C18.7226 8.96353 18.9177 9.27671 18.9177 9.63174C18.9177 9.71938 18.9095 9.81109 18.8888 9.89895L18.6311 11.0846H18.1035L18.1492 10.8675C18.0081 11.0345 17.792 11.1347 17.5385 11.1347C17.1812 11.1347 16.9071 10.9218 16.9071 10.5669C16.9071 10.0241 17.3807 9.79458 17.9705 9.79458C18.0372 9.79458 18.1783 9.80701 18.3278 9.82367L18.3363 9.78186C18.3445 9.74861 18.3445 9.71507 18.3445 9.68597C18.3445 9.52307 18.2323 9.42703 17.9208 9.42703C17.688 9.42703 17.4262 9.49815 17.2935 9.53564L17.3932 9.05547ZM15.1581 11.0851L15.3865 10.0287C15.478 9.60292 15.6856 9.45676 15.9018 9.45676C16.1802 9.45676 16.2134 9.66565 16.1595 9.90353L15.9101 11.0851H16.5042L16.7658 9.87429C16.8946 9.26893 16.6164 8.95146 16.1802 8.95146C15.9389 8.95146 15.7063 9.04756 15.5069 9.26052L15.5609 9.01431H15.0084L14.5638 11.0851H15.1581ZM14.402 8.77732C14.2193 8.77732 14.0821 8.63114 14.0947 8.44332C14.1071 8.25549 14.2525 8.10931 14.456 8.10931C14.6389 8.10931 14.7759 8.25549 14.7633 8.44332C14.7511 8.63114 14.6056 8.77732 14.402 8.77732ZM14.0111 9.01431L13.5666 11.0851H14.1566L14.6012 9.01431H14.0111ZM12.5652 10.0037L12.3326 11.0851H11.7262L12.3162 8.2793L13.8742 8.2793L13.7579 8.8096L12.8148 8.8096L12.6775 9.47349H13.571L13.4628 10.0037H12.5652ZM11.7465 9.47122L11.8421 9.0162H11.2066L11.3311 8.44L10.7119 8.57768L10.3256 10.3479C10.2177 10.8491 10.4917 11.1245 10.9903 11.1245C11.0943 11.1245 11.2687 11.1037 11.3935 11.062L11.4932 10.6068C11.3935 10.632 11.2687 10.6569 11.1608 10.6569C10.9903 10.6569 10.8698 10.5985 10.9115 10.3897L11.1068 9.47122H11.7465ZM9.12088 10.6736C9.29122 10.6736 9.4947 10.6445 9.4947 10.4774C9.4947 10.3612 9.36902 10.3089 9.21903 10.2464C8.99716 10.154 8.72213 10.0394 8.72213 9.66335C8.72213 9.23332 9.07108 8.97438 9.64844 8.97438C9.83965 8.97438 10.0516 9.00362 10.2302 9.05376L10.1305 9.52545L10.1289 9.52498C10.0402 9.49961 9.78018 9.42525 9.59441 9.42525C9.39928 9.42525 9.27464 9.47122 9.27464 9.60073C9.27464 9.71598 9.39839 9.76706 9.54684 9.82834C9.76937 9.92019 10.0474 10.035 10.0474 10.4231C10.0474 10.9241 9.61514 11.1245 9.08345 11.1245C8.85916 11.1245 8.62235 11.087 8.43531 11.041L8.53523 10.5734C8.66389 10.6153 8.90475 10.6736 9.12088 10.6736ZM6.97706 10.0511C6.88995 10.4812 7.07686 10.6691 7.31379 10.6691C7.55051 10.6691 7.75399 10.4769 7.84127 10.0511C7.93276 9.6252 7.74578 9.43329 7.50892 9.43329C7.27211 9.43329 7.06427 9.62112 6.97706 10.0511ZM4.80835 10.2291H5.07017C5.90527 10.2291 6.37065 9.81591 6.37065 9.12694C6.37065 8.61337 6.00891 8.2793 5.38994 8.2793H4.61738L4.02734 11.0851H4.62559L4.80835 10.2291ZM5.10772 8.79287L4.91245 9.71549H5.1619C5.55229 9.71549 5.76407 9.50683 5.76407 9.16866C5.76407 8.90564 5.63127 8.79287 5.35702 8.79287H5.10772Z" fill="black"/>
<path d="M13.5615 15.1616H14.6062L14.5017 15.5791H13.457L13.5615 15.1616Z" fill="black"/>
<path d="M11.785 13.7031H13.4042L13.2997 14.1207H12.2551L12.0984 14.7992H13.0386L12.9341 15.2167H11.9939L11.8372 15.9996H12.9341L12.8297 16.4171H11.7328H11.1582L11.785 13.7031Z" fill="black"/>
<path fill-rule="evenodd" clip-rule="evenodd" d="M28.2398 15.7933L28.1293 16.3011C27.9679 16.3521 27.7727 16.3906 27.5265 16.3906C26.9194 16.3906 26.5288 16.0449 26.5288 15.4563C26.5288 14.7695 26.9873 14.1463 27.743 14.1463C28.3247 14.1463 28.5963 14.5304 28.5963 14.9998C28.5963 15.1533 28.5666 15.3196 28.5157 15.486H27.1148C27.1275 15.8146 27.3651 15.9083 27.637 15.9083C27.8703 15.9083 28.053 15.8572 28.2398 15.7933ZM28.036 14.9667C28.036 14.7406 27.9001 14.6041 27.7006 14.6041C27.4458 14.6041 27.2549 14.7918 27.1657 15.0775H28.0276L28.0291 15.0638C28.0327 15.0309 28.036 15.0004 28.036 14.9667ZM25.8242 15.8701C25.5482 15.8701 25.3615 15.7507 25.3615 15.4052C25.3615 14.9999 25.6161 14.6628 26.0196 14.6628C26.1469 14.6628 26.2913 14.7011 26.4356 14.7567L26.5375 14.2703C26.3718 14.2106 26.1765 14.1679 25.9813 14.1679C25.3147 14.1679 24.7458 14.667 24.7458 15.4351C24.7458 16.0664 25.1322 16.3649 25.6883 16.3649C25.8751 16.3649 26.0321 16.3309 26.1469 16.2841L26.2572 15.7848C26.1299 15.8317 25.9897 15.8701 25.8242 15.8701ZM23.1241 15.2479L22.8906 16.3273H22.2835L22.7378 14.2113H23.3023L23.2472 14.4629C23.451 14.2453 23.6887 14.1471 23.935 14.1471C24.3807 14.1471 24.6651 14.4715 24.5335 15.0901L24.2661 16.3273H23.659L23.9137 15.1199C23.969 14.8768 23.935 14.6634 23.6505 14.6634C23.4298 14.6634 23.2175 14.8128 23.1241 15.2479ZM20.7084 15.7167C20.7084 15.5035 20.8952 15.3839 21.205 15.3839C21.2646 15.3839 21.396 15.3883 21.515 15.4053L21.4895 15.5248C21.4172 15.7763 21.2136 15.9472 20.9717 15.9472C20.7975 15.9472 20.7084 15.8619 20.7084 15.7167ZM20.6367 14.2523C20.73 14.2224 21.0145 14.1583 21.2947 14.1583C21.9952 14.1583 22.1945 14.4783 22.1945 14.8411C22.1945 14.9307 22.1861 15.0244 22.165 15.1142L21.9017 16.3257H21.3625L21.4093 16.1039C21.265 16.2745 21.0442 16.3769 20.7852 16.3769C20.4201 16.3769 20.1401 16.1593 20.1401 15.7967C20.1401 15.242 20.6239 15.0075 21.2266 15.0075C21.2947 15.0075 21.439 15.0202 21.5918 15.0372L21.6004 14.9945C21.6088 14.9605 21.6088 14.9263 21.6088 14.8965C21.6088 14.7301 21.4941 14.6319 21.1758 14.6319C20.938 14.6319 20.6704 14.7046 20.5348 14.7429L20.6367 14.2523ZM18.3526 16.3273L18.586 15.2479C18.6795 14.8128 18.8916 14.6634 19.1126 14.6634C19.3971 14.6634 19.431 14.8768 19.3759 15.1199L19.121 16.3273H19.7281L19.9954 15.0901C20.1271 14.4715 19.8428 14.1471 19.3971 14.1471C19.1505 14.1471 18.9128 14.2453 18.7091 14.4629L18.7642 14.2113H18.1997L17.7454 16.3273H18.3526ZM17.5796 13.9681C17.3929 13.9681 17.2527 13.8188 17.2656 13.6269C17.2782 13.4349 17.4268 13.2856 17.6348 13.2856C17.8216 13.2856 17.9617 13.4349 17.9488 13.6269C17.9363 13.8188 17.7876 13.9681 17.5796 13.9681ZM17.1805 14.2113L16.7263 16.3273H17.3292L17.7835 14.2113H17.1805ZM15.7031 15.2223L15.4653 16.3273H14.8457L15.4486 13.4602H17.0405L16.9217 14.0021H15.958L15.8178 14.6805H16.7307L16.6202 15.2223H15.7031Z" fill="black"/>
</svg>
