<svg width="32" height="20" viewBox="0 0 32 20" fill="none" xmlns="http://www.w3.org/2000/svg">
<rect x="0.247656" y="0.15" width="31.2556" height="19.6298" rx="2.85" fill="white" stroke="black" stroke-width="0.3"/>
<path d="M17.8278 9.95491C17.8278 12.933 15.4367 15.3473 12.4871 15.3473C9.53757 15.3473 7.14648 12.933 7.14648 9.95491C7.14648 6.97676 9.53757 4.5625 12.4871 4.5625C15.4367 4.5625 17.8278 6.97676 17.8278 9.95491Z" fill="#ED0006"/>
<path d="M24.7555 9.95491C24.7555 12.933 22.3644 15.3473 19.4149 15.3473C16.4653 15.3473 14.0742 12.933 14.0742 9.95491C14.0742 6.97676 16.4653 4.5625 19.4149 4.5625C22.3644 4.5625 24.7555 6.97676 24.7555 9.95491Z" fill="#0099DF"/>
<path fill-rule="evenodd" clip-rule="evenodd" d="M15.9506 14.06C17.0989 13.0709 17.827 11.5992 17.827 9.95577C17.827 8.31234 17.0989 6.84063 15.9506 5.85156C14.8023 6.84063 14.0742 8.31234 14.0742 9.95577C14.0742 11.5992 14.8023 13.0709 15.9506 14.06Z" fill="#6C6BBD"/>
</svg>
