<svg width="32" height="20" viewBox="0 0 32 20" fill="none" xmlns="http://www.w3.org/2000/svg">
<rect x="1.00547" y="0.15" width="30.4251" height="19.6298" rx="2.85" fill="white" stroke="black" stroke-width="0.3"/>
<path fill-rule="evenodd" clip-rule="evenodd" d="M11.0365 13.4951H9.13888L7.71594 7.91737C7.6484 7.66079 7.50499 7.43397 7.29405 7.32706C6.76761 7.0584 6.18752 6.84459 5.55469 6.73676V6.52201H8.61152C9.03341 6.52201 9.34983 6.84459 9.40256 7.21923L10.1409 11.2426L12.0375 6.52201H13.8823L11.0365 13.4951ZM14.9374 13.4951H13.1453L14.6209 6.52201H16.413L14.9374 13.4951ZM18.7313 8.45194C18.784 8.07638 19.1004 7.86164 19.4696 7.86164C20.0497 7.80772 20.6816 7.91555 21.2089 8.18328L21.5253 6.68195C20.998 6.46721 20.4179 6.35938 19.8915 6.35938C18.1521 6.35938 16.8864 7.32525 16.8864 8.66575C16.8864 9.68554 17.7829 10.221 18.4158 10.5436C19.1004 10.8652 19.3641 11.08 19.3114 11.4016C19.3114 11.8841 18.784 12.0988 18.2576 12.0988C17.6247 12.0988 16.9919 11.938 16.4127 11.6693L16.0963 13.1716C16.7291 13.4393 17.4138 13.5472 18.0466 13.5472C19.9969 13.6002 21.2089 12.6352 21.2089 11.1869C21.2089 9.36297 18.7313 9.25606 18.7313 8.45194ZM27.4807 13.4951L26.0578 6.52201H24.5294C24.213 6.52201 23.8966 6.73676 23.7911 7.0584L21.1561 13.4951H23.001L23.3692 12.4762H25.6359L25.8469 13.4951H27.4807ZM24.7932 8.40008L25.3196 11.0281H23.844L24.7932 8.40008Z" fill="#172B85"/>
</svg>
