<svg width="58" height="58" viewBox="0 0 58 58" fill="none" xmlns="http://www.w3.org/2000/svg">
<g clip-path="url(#clip0_501_10796)">
<path d="M57.7717 16.7481C58.2789 17.804 57.9163 19.0715 56.9297 19.6963L56.8663 19.7346C55.6768 20.4869 54.3276 21.3413 54.3276 24.5394C54.3276 24.797 54.3301 25.0827 54.3377 25.4193C54.3504 26.0161 54.3707 26.6868 54.3935 27.3958C54.4163 28.1074 54.4392 28.8444 54.4569 29.6223V29.6758C54.4569 33.9298 53.6935 40.1017 50.0642 45.4293C50.0617 45.4344 50.0592 45.437 50.0566 45.4446C49.7066 45.9981 49.273 46.5948 48.7606 47.2171C48.7327 47.2528 48.7074 47.2885 48.6795 47.3217C48.6567 47.3498 48.6338 47.3753 48.6085 47.4008C48.5527 47.4671 48.4969 47.5359 48.4411 47.5997C48.4208 47.6226 48.403 47.6481 48.3802 47.6736C47.9136 48.2296 47.4165 48.7677 46.861 49.3161C46.823 49.3569 46.7875 49.3951 46.752 49.4308C46.7089 49.4742 46.6683 49.515 46.6226 49.5507C45.5067 50.632 44.2817 51.6165 42.9858 52.481C42.935 52.5193 42.8792 52.5576 42.8234 52.5933C42.7981 52.6111 42.7702 52.629 42.7397 52.6443L42.6966 52.6723C41.4793 53.4604 40.1858 54.1592 38.8543 54.7483C34.0559 56.985 29.6454 57.9158 29.4578 57.9541C29.3056 57.9847 29.1509 58 28.9936 58C28.8389 58 28.6842 57.9873 28.532 57.9541C28.3444 57.9158 23.9339 56.985 19.138 54.7483C17.804 54.1566 16.5105 53.4578 15.2906 52.6698L15.2501 52.6443C15.2222 52.6264 15.1943 52.6086 15.1664 52.5907C15.1106 52.5576 15.0573 52.5193 15.004 52.481C13.7055 51.6139 12.4856 50.632 11.3672 49.5507C11.324 49.5124 11.2784 49.4716 11.2378 49.4283C11.1998 49.3926 11.1643 49.3543 11.1262 49.3135C10.5733 48.7652 10.0762 48.2296 9.60958 47.6736C9.58929 47.6481 9.56901 47.6252 9.54872 47.5997C9.49292 47.5334 9.43712 47.4671 9.38133 47.4008C9.34836 47.3651 9.31539 47.3268 9.28749 47.2885C9.26973 47.2681 9.25198 47.2452 9.23423 47.2222C8.72192 46.5974 8.2857 45.9981 7.9357 45.4446C7.93317 45.4395 7.93063 45.4344 7.92809 45.4293C4.30135 40.1017 3.53796 33.9298 3.53796 29.6758V29.6223C3.55571 28.8495 3.58108 28.1176 3.6039 27.4111C3.62673 26.6945 3.64702 26.0212 3.6597 25.4168C3.66731 25.0827 3.66984 24.797 3.66984 24.5394C3.66984 21.3413 2.32059 20.4869 1.13112 19.7346L1.06772 19.6963C0.0862148 19.074 -0.273923 17.804 0.223169 16.7481C0.240922 16.715 0.286573 16.6079 0.324616 16.5186C0.824244 15.3607 2.14306 12.285 5.25749 9.10984C6.3582 7.98514 7.59078 6.9548 8.91467 6.04177C12.97 3.14968 17.6518 1.28793 22.8332 0.510069C22.8535 0.507519 22.8738 0.502418 22.8941 0.502418C24.8799 0.168323 26.9342 0 28.9987 0C31.0632 0 33.1175 0.168323 35.1033 0.502418C35.1236 0.504969 35.1464 0.507519 35.1642 0.510069C40.343 1.28538 45.0248 3.14713 49.0853 6.04177C50.4092 6.9548 51.6418 7.98514 52.7425 9.10984C55.8544 12.2825 57.1757 15.3607 57.6728 16.5186C57.7108 16.6053 57.759 16.715 57.7717 16.7481ZM55.7098 17.7453C55.4105 17.1205 54.2895 13.9683 51.1142 10.7268C50.186 9.78313 49.0853 8.83185 47.7766 7.93158C44.7306 5.75613 40.4851 3.6368 34.8269 2.78753L34.837 2.79263C32.9856 2.47639 31.0302 2.30296 28.9987 2.30296C26.9723 2.30296 25.0144 2.47384 23.1629 2.79263L23.1731 2.78753C17.5123 3.6368 13.2693 5.75613 10.2233 7.93158C8.91467 8.8293 7.81396 9.78058 6.88572 10.7268C3.70788 13.9683 2.58689 17.1179 2.28762 17.7453C3.61405 18.5844 5.96001 19.9998 5.96001 24.5394C5.96001 24.8276 5.95494 25.1388 5.94733 25.4652C5.92451 26.669 5.86364 28.115 5.82813 29.6758C5.82813 32.0426 6.05639 38.6658 9.87588 44.2128L9.87335 44.2154C10.2081 44.7509 10.6114 45.2865 11.0248 45.7864C11.04 45.8042 11.0527 45.8246 11.0704 45.8399C11.078 45.8501 11.0907 45.8629 11.1009 45.8757C11.1871 45.9777 11.2733 46.0822 11.3595 46.1817C11.3595 46.1817 11.3595 46.1842 11.357 46.1842C11.8059 46.7173 12.2751 47.2197 12.7545 47.694C12.7925 47.7323 12.8305 47.7731 12.866 47.8088L12.8635 47.8037C13.9769 48.8927 15.1638 49.8338 16.3837 50.6371H16.3761C16.4218 50.6678 16.47 50.6958 16.5156 50.7239C17.6899 51.4864 18.8895 52.1266 20.0789 52.6494C24.6973 54.807 28.9936 55.6996 28.9936 55.6996C28.9936 55.6996 33.2925 54.8095 37.9109 52.6494C39.1003 52.124 40.2999 51.4839 41.4742 50.7239C41.5198 50.6958 41.568 50.6678 41.6137 50.6371H41.6086C42.8285 49.8338 44.0154 48.8927 45.1288 47.8037L45.1263 47.8088C45.1618 47.7731 45.1998 47.7349 45.2379 47.694C45.7172 47.2197 46.1864 46.7173 46.6353 46.1842V46.1817C46.7216 46.0797 46.8078 45.9777 46.894 45.8757C46.9042 45.8629 46.9194 45.8501 46.927 45.8399C46.9422 45.8221 46.9549 45.8042 46.9701 45.7864C47.3835 45.2865 47.7893 44.7509 48.1215 44.2154L48.119 44.2128C51.9385 38.6658 52.1667 32.0426 52.1667 29.6758C52.1287 28.115 52.0704 26.669 52.045 25.4652C52.0399 25.1388 52.0349 24.8276 52.0349 24.5394C52.0374 19.9998 54.3859 18.5844 55.7098 17.7453Z" fill="black"/>
<path d="M57.5587 16.5721C57.0616 15.4117 55.7478 12.3513 52.6512 9.19653C51.5631 8.08458 50.3432 7.06189 49.0244 6.15397L48.999 6.13611C44.964 3.26187 40.3075 1.41287 35.1642 0.637565L35.0399 0.619713C31.086 -0.0382767 26.9089 -0.0382767 22.955 0.619713L22.8332 0.637565C17.6848 1.41287 13.0283 3.26187 8.99582 6.13611L8.97045 6.15397C7.6491 7.06444 6.4292 8.08713 5.34371 9.19653C2.25971 12.3386 0.940894 15.399 0.446338 16.5517L0.339818 16.794C-0.131912 17.7938 0.2054 18.9848 1.12604 19.5764L1.21227 19.63C2.62746 20.5252 3.79664 21.5122 3.79664 24.5343C3.79664 24.7919 3.7941 25.0775 3.78649 25.4116C3.77381 26.0161 3.75352 26.6919 3.7307 27.406L3.72055 27.758C3.70026 28.3496 3.67997 28.9617 3.66729 29.6019V29.6809C3.66729 33.8788 4.418 40.0073 8.00163 45.2993L8.0346 45.3503C8.39727 45.9241 8.82843 46.5132 9.32805 47.1253L9.40921 47.2248C9.42697 47.2452 9.44472 47.2681 9.46501 47.2911L9.69834 47.5691C10.1675 48.1276 10.6494 48.6504 11.1896 49.186L11.253 49.2497C11.2758 49.2752 11.2987 49.2982 11.324 49.3212L11.3519 49.3467C11.3824 49.3773 11.4128 49.4053 11.4432 49.4334L11.4889 49.4767C12.5845 50.5326 13.7841 51.4992 15.0548 52.351L15.1106 52.3892C15.1511 52.4173 15.1892 52.4453 15.2247 52.4657L15.387 52.5677C16.5942 53.3482 17.8725 54.0367 19.1837 54.6182L19.2192 54.6335C23.9973 56.86 28.3849 57.7858 28.5701 57.824C28.8465 57.8827 29.1762 57.8801 29.44 57.824C29.6277 57.7858 34.0077 56.8651 38.7985 54.6335L38.8315 54.6182C40.1249 54.0444 41.3778 53.3686 42.5571 52.6111L42.5876 52.5856L42.7144 52.5116C42.7321 52.5014 42.7474 52.4912 42.7651 52.481C42.8184 52.4453 42.8589 52.4198 42.8995 52.3892L42.968 52.3408C44.231 51.4966 45.4256 50.5351 46.5161 49.4844L46.5795 49.4257C46.6125 49.3977 46.6429 49.3671 46.6759 49.3339C46.7089 49.3008 46.7393 49.2701 46.7672 49.2421L46.8179 49.1911C47.3531 48.6606 47.8349 48.1378 48.294 47.592L48.611 47.2171C48.6186 47.2069 48.6364 47.1865 48.6567 47.1585L48.6998 47.1024C49.1918 46.503 49.6179 45.919 49.9653 45.3681L50.0084 45.3018C53.5921 40.0073 54.3453 33.8788 54.3453 29.6682V29.5993C54.325 28.8342 54.3022 28.1125 54.2819 27.3958C54.2591 26.6843 54.2363 26.011 54.2261 25.4091C54.2185 25.0801 54.216 24.7919 54.216 24.5318C54.216 21.5096 55.3826 20.5252 56.7927 19.63L56.8967 19.5662C57.7996 18.995 58.1471 17.804 57.6804 16.8119L57.5587 16.5721ZM54.5913 18.6685C53.549 19.5101 52.1642 21.0327 52.1642 24.5343C52.1642 24.8225 52.1693 25.1286 52.1744 25.4652C52.187 26.062 52.2073 26.7302 52.2301 27.4443L52.2327 27.4902C52.253 28.1711 52.2783 28.8954 52.2961 29.6427V29.6937C52.291 35.2917 50.8454 40.4714 48.2255 44.2791L47.6016 45.1845C47.4418 45.3987 47.2643 45.6206 47.0817 45.845L47.0056 45.9394L46.4958 46.5413C46.1332 46.957 45.7375 47.3752 45.3241 47.7858L45.2354 47.8751C44.1473 48.9386 42.9579 49.8975 41.6822 50.7366L41.5579 50.8182C40.4065 51.5629 39.2018 52.2158 37.9666 52.759L37.9464 52.7667C34.279 54.4805 30.7918 55.3986 29.4654 55.7149L28.9987 55.8245L28.532 55.7149C27.2056 55.3986 23.7184 54.4805 20.0308 52.7565L20.0257 52.7539C18.7906 52.2081 17.5859 51.5578 16.4522 50.8208L16.3178 50.734C15.0421 49.8924 13.8501 48.9361 12.7773 47.8853L12.6606 47.7705C12.3055 47.4186 11.9606 47.0564 11.6385 46.6943L11.2632 46.2582C11.1896 46.174 11.1186 46.0873 11.0451 46.0006L10.9385 45.8731C10.7483 45.6436 10.5835 45.4344 10.4313 45.2329L10.378 45.1564L9.77189 44.2766C7.14947 40.4689 5.70385 35.2891 5.70131 29.6911V29.6401C5.71906 28.9541 5.73935 28.291 5.75964 27.6585L5.76218 27.559C5.78754 26.8016 5.80783 26.0926 5.82051 25.455C5.82812 25.126 5.83319 24.8174 5.83319 24.5318C5.83319 21.0327 4.44844 19.5076 3.40606 18.666L2.13544 17.6407L2.85825 16.1717C3.85751 14.1391 5.18139 12.2748 6.79187 10.6324C7.80381 9.60204 8.93241 8.65586 10.1498 7.82189L10.1574 7.81679C13.528 5.40927 17.3982 3.75919 21.6463 2.91758L21.697 2.90737L23.1376 2.65999C26.9698 2.00455 31.02 2.00455 34.8547 2.65999L36.3333 2.91248C40.5891 3.75154 44.4644 5.40417 47.8476 7.82189L47.8628 7.8321C49.0625 8.65586 50.1911 9.60204 51.2005 10.6298C52.8135 12.2774 54.1374 14.1417 55.1391 16.1717L55.862 17.6407L54.5913 18.6685Z" fill="black"/>
<path d="M49.5774 12.2441C48.672 11.3209 47.655 10.4717 46.5593 9.71931L46.5289 9.6989C43.4069 7.4699 39.8308 5.94734 35.8947 5.16948L34.4744 4.9272C30.944 4.32277 27.0535 4.32277 23.5232 4.9272L22.0826 5.17459C18.1591 5.94989 14.5857 7.47245 11.4712 9.69635L11.4433 9.71675C10.3452 10.4717 9.32814 11.3209 8.42019 12.2467C7.02782 13.6672 5.87639 15.2689 4.99634 17.0107C7.09376 18.7858 8.11584 21.2494 8.11584 24.5343C8.11584 24.8352 8.11077 25.1617 8.10316 25.5034C8.09048 26.1512 8.06766 26.8678 8.04229 27.6355L8.03976 27.735C8.01947 28.3598 7.99918 29.0178 7.98143 29.6987C7.9865 34.8275 9.28756 39.5456 11.6462 42.9707L12.2524 43.8506C12.3792 44.0189 12.5263 44.2026 12.6835 44.3938L12.79 44.5214C12.8585 44.6004 12.9245 44.682 12.9929 44.7611L13.3429 45.1691C13.6295 45.4905 13.9415 45.8195 14.2686 46.1434L14.3701 46.2454C15.3364 47.1916 16.4117 48.0561 17.5657 48.8161L17.6849 48.8952C18.7222 49.5685 19.8203 50.1602 20.9464 50.6575L20.987 50.6753C24.4337 52.2872 27.6927 53.1568 28.9937 53.468C30.0488 53.2155 33.4726 52.3254 37.0005 50.6753L37.041 50.6575C38.1671 50.1602 39.2653 49.5659 40.3076 48.8927L40.4268 48.8136C41.5808 48.0536 42.6561 47.1865 43.625 46.2403L43.7188 46.1485C44.0942 45.7761 44.4518 45.3987 44.7764 45.0238L45.2481 44.4652L45.4688 44.6004L45.2709 44.4423C45.2887 44.4193 45.3065 44.3989 45.3242 44.3785C45.4865 44.1822 45.6387 43.9858 45.7807 43.7996L46.3488 42.9733C48.71 39.5456 50.0111 34.83 50.0136 29.6936C49.9959 28.9566 49.973 28.2399 49.9502 27.5641V27.5207C49.9274 26.799 49.9046 26.1206 49.8919 25.506C49.8868 25.154 49.8817 24.8352 49.8817 24.5343C49.8817 21.2469 50.9038 18.7832 53.0038 17.0107C52.1237 15.2689 50.9723 13.6672 49.5774 12.2441ZM50.9824 16.8552C49.2426 18.8164 48.3626 21.3999 48.3626 24.5343C48.3626 24.8403 48.3676 25.1693 48.3727 25.5391C48.3854 26.1588 48.4082 26.8398 48.431 27.5692L48.4336 27.6125C48.4539 28.2782 48.4767 28.9821 48.4944 29.7115C48.4868 34.5367 47.2796 38.9361 45.0985 42.1062L44.5507 42.9044C44.4239 43.0728 44.292 43.2385 44.1652 43.3915L43.63 44.0266C43.3282 44.3709 42.9985 44.7203 42.6485 45.0671L42.5699 45.1462C41.6696 46.0286 40.6703 46.832 39.6 47.5359L39.4884 47.6098C38.5146 48.2398 37.4823 48.7983 36.4197 49.2675L36.3639 49.2931C33.3864 50.6855 30.5104 51.5119 29.0622 51.8817L28.9988 51.897L28.9354 51.8817C27.4872 51.5119 24.6112 50.6855 21.616 49.2854L21.5576 49.2599C20.5051 48.7957 19.478 48.2398 18.5066 47.6098L18.4001 47.541C17.3273 46.8345 16.3331 46.0363 15.4429 45.1666L15.3338 45.0569C15.0346 44.7611 14.748 44.4601 14.4842 44.1643L14.1444 43.769C14.081 43.6925 14.015 43.616 13.9491 43.5395L13.8527 43.4247C13.7208 43.264 13.5965 43.1085 13.4824 42.958L12.8966 42.1062C10.7154 38.9386 9.50821 34.5393 9.5006 29.7217C9.51582 29.0484 9.53611 28.4032 9.5564 27.7885L9.55893 27.6891C9.5843 26.9137 9.60712 26.1894 9.6198 25.5391C9.62741 25.1872 9.63248 24.8505 9.63248 24.5394C9.63248 21.405 8.74989 18.8215 7.0126 16.8603L6.88833 16.72L6.98471 16.5593C7.68723 15.3989 8.53178 14.3125 9.49553 13.328C10.335 12.4737 11.2835 11.6805 12.3107 10.9741L12.3462 10.9486C15.278 8.85474 18.6435 7.42144 22.3514 6.68439L23.7742 6.44211C27.1398 5.86573 30.8477 5.86573 34.2157 6.44211L35.6157 6.68184C39.3363 7.41889 42.7119 8.85984 45.6564 10.9613L45.6996 10.9919C46.714 11.6882 47.6524 12.4737 48.4894 13.3255C49.4557 14.3125 50.3027 15.4015 51.0053 16.5619L51.1016 16.7226L50.9824 16.8552Z" fill="black"/>
<path d="M41.9738 30.3517C41.634 28.9158 41.0506 27.5871 40.4115 26.799C38.8543 24.8761 36.5641 24.3456 35.3392 24.2028C35.2758 24.1951 35.225 24.1467 35.2123 24.0829C35.2022 24.0217 35.2326 23.9605 35.2884 23.9299C35.6942 23.7233 36.1076 23.5142 36.5159 23.3127C37.5583 22.7975 38.3953 22.2135 39.0014 21.5759C39.5492 21.0021 39.9246 20.3722 40.1173 19.704C40.6804 17.7427 39.5441 15.8912 38.9329 14.894L38.867 14.7869C38.0529 13.448 35.6486 10.8568 34.9308 10.0943C34.7913 9.94633 34.5935 9.85962 34.3881 9.85962C34.3348 9.85962 34.279 9.86727 34.2283 9.87747C29.2599 10.9894 19.1304 14.4553 17.4007 15.2587C17.3094 15.3021 17.2232 15.3429 17.137 15.3862C16.9036 15.5086 16.7464 15.7509 16.7464 16.0315C16.7464 16.4344 17.071 16.7609 17.4743 16.7609C17.5656 16.7609 17.6518 16.743 17.733 16.7099C17.8243 16.6741 17.908 16.641 17.9866 16.6155C18.1261 16.567 18.3746 16.4905 18.6232 16.5441V16.5415C18.8235 16.5798 19.5641 16.7762 19.696 18.0003C19.696 18.0131 19.6985 18.0258 19.701 18.0386C19.7036 18.0539 19.7061 18.0692 19.7061 18.087C19.7137 18.1584 19.7188 18.2324 19.7188 18.3038V18.3421V32.267C19.7188 33.9859 18.9757 34.4934 18.6206 34.7383L18.5851 34.7612C18.4608 34.8479 18.3797 34.9576 18.367 35.0571C18.3594 35.1132 18.3797 35.1667 18.4203 35.2152C18.4811 35.2764 18.5623 35.307 18.6485 35.307C18.8565 35.3274 19.5032 35.2381 20.2565 35.0264C20.2691 35.0213 20.2818 35.0188 20.2996 35.0162C20.363 34.9984 20.4264 34.9805 20.4923 34.9576H20.4949C20.7764 34.8709 21.2228 34.723 21.5956 34.5444C21.6159 34.5342 21.6336 34.5266 21.6488 34.5164C22.0318 34.3353 22.3919 34.1211 22.6836 33.8737C23.2872 33.3228 23.48 32.7031 23.518 32.3001C23.5231 32.2491 23.5281 32.2083 23.5307 32.1854C23.5839 31.7339 23.6042 31.178 23.6093 30.4792C23.6118 30.4205 23.6118 30.367 23.6118 30.316V15.1108C23.6118 14.5854 24.0227 14.1417 24.5274 14.1238C24.5401 14.1238 24.5502 14.1238 24.5629 14.1238C24.8089 14.1238 25.0448 14.2207 25.2248 14.3941C25.4125 14.5778 25.5165 14.82 25.5165 15.0827V32.1522C25.5089 32.5603 25.4633 33.1468 25.3466 33.5779C25.3111 33.6875 25.268 33.8023 25.2223 33.9094C25.2122 33.9298 25.2046 33.9476 25.1995 33.9655C25.1209 34.1415 25.0321 34.3174 24.9281 34.4807C24.5908 35.0188 24.0126 35.6436 23.0336 36.1103C22.7013 36.2583 22.3285 36.4036 21.8999 36.5363L21.8086 36.5643C20.4543 36.9698 17.1775 37.9517 15.9957 38.3291C14.9051 38.676 14.3497 39.1937 14.337 39.8645C14.3345 39.8874 14.3345 39.9078 14.3345 39.9282C14.3345 40.5403 14.829 41.0402 15.4402 41.0402C16.0007 41.0402 16.4649 40.6168 16.5333 40.071C16.541 40.0251 16.5435 39.9767 16.5435 39.9282C16.5435 39.8441 16.5333 39.765 16.5181 39.6859C16.5511 39.6834 16.5891 39.6783 16.6272 39.6757C16.9797 39.6604 17.525 39.7548 18.1945 40.2062C18.2782 40.2649 18.3772 40.3363 18.4786 40.4128C18.4989 40.4255 18.5166 40.4408 18.5369 40.4536C20.2514 41.7364 24.1267 45.0417 24.743 45.5747C24.8444 45.6639 24.9738 45.7124 25.1082 45.7124C25.1462 45.7124 25.1843 45.7099 25.2198 45.6996C25.9629 45.5492 30.0182 44.6311 36.9293 41.4763C38.3775 40.8132 39.5594 39.9231 40.4343 38.829C41.2104 37.8624 41.7506 36.7326 42.0448 35.4728C42.514 33.4758 42.2655 31.586 41.9738 30.3517ZM30.4849 12.4176C30.5255 12.3947 30.5686 12.3819 30.6142 12.3819C30.6827 12.3819 30.7461 12.4074 30.7943 12.4559C33.0109 14.6288 35.5167 17.6305 35.9123 19.5484C36.1228 20.5711 35.8058 21.502 34.9714 22.3181C34.35 22.9225 33.645 23.2413 33.5867 23.2668L29.5972 25.2408C29.5769 25.251 29.5567 25.2561 29.5338 25.2561C29.5085 25.2561 29.4806 25.2484 29.4603 25.2331C29.4172 25.2076 29.3918 25.1617 29.3918 25.1107V14.6517L29.3893 14.6237C29.3893 14.6135 29.2701 13.1266 30.4849 12.4176ZM23.7767 35.7329C23.6245 35.8222 23.4571 35.914 23.2745 36.0007C23.4571 35.9114 23.6245 35.8222 23.7767 35.7329ZM36.7036 38.1455C36.3638 39.0662 35.7957 39.8262 35.0171 40.4051C34.383 40.8769 31.7505 42.0476 30.4012 42.3944C30.0233 42.4939 29.6657 42.5423 29.3309 42.5423C28.6436 42.5423 28.2404 42.3408 28.0451 42.2414C27.6165 42.0169 23.6702 38.8086 23.064 38.2628C23.0336 38.2373 23.0158 38.1965 23.0158 38.1557C23.0158 38.1149 23.0311 38.0767 23.0615 38.0486C23.0818 38.0282 23.1097 38.0078 23.1401 37.9874C23.1426 37.9848 23.1477 37.9823 23.1503 37.9797C23.1655 37.9721 23.1883 37.9619 23.2137 37.9517C23.2314 37.9466 26.4092 36.9877 27.9512 36.5235C29.4958 36.0568 29.407 34.4807 29.4197 34.3328H29.4172C29.4197 34.2817 29.4222 34.2282 29.4222 34.1746V34.1185L29.4121 32.6521V27.9365C29.4121 27.582 29.5846 27.2504 29.8762 27.0464C30.0233 26.9418 30.1882 26.8322 30.3632 26.7174L30.3961 26.6945C30.4063 26.6868 30.4139 26.6817 30.424 26.6792C30.4367 26.669 30.4494 26.6613 30.4671 26.6511C30.6802 26.5185 30.8805 26.4496 31.0505 26.4496C31.0682 26.4496 31.086 26.4496 31.1037 26.4522C31.1088 26.4522 31.1139 26.4522 31.1189 26.4547C31.5349 26.5414 31.8874 26.6894 31.9255 26.7072L31.9508 26.7174C34.2232 27.5361 35.8058 28.8801 36.6504 30.7062C38.1619 33.9808 36.8583 37.7273 36.7036 38.1455Z" fill="black"/>
</g>
<defs>
<clipPath id="clip0_501_10796">
<rect width="58" height="58" fill="white"/>
</clipPath>
</defs>
</svg>
