<svg width="21" height="18" viewBox="0 0 21 18" fill="none" xmlns="http://www.w3.org/2000/svg">
<path d="M18.3966 2.20742C17.936 1.74662 17.3891 1.38107 16.7872 1.13167C16.1853 0.882273 15.5402 0.753906 14.8886 0.753906C14.2371 0.753906 13.592 0.882273 12.9901 1.13167C12.3881 1.38107 11.8413 1.74662 11.3807 2.20742L10.4248 3.16331L9.46891 2.20742C8.53854 1.27706 7.2767 0.754388 5.96097 0.754388C4.64524 0.754389 3.3834 1.27706 2.45303 2.20742C1.52267 3.13779 1 4.39963 1 5.71536C1 7.03109 1.52267 8.29293 2.45303 9.2233L3.40892 10.1792L10.4248 17.1951L17.4407 10.1792L18.3966 9.2233C18.8574 8.7627 19.2229 8.21584 19.4723 7.61393C19.7217 7.01203 19.8501 6.36689 19.8501 5.71536C19.8501 5.06383 19.7217 4.41869 19.4723 3.81679C19.2229 3.21488 18.8574 2.66801 18.3966 2.20742V2.20742Z" stroke="black" stroke-width="1.3" stroke-linecap="round" stroke-linejoin="round"/>
</svg>
